<svg width="16" height="16" viewBox="0 0 16 16" fill="none" xmlns="http://www.w3.org/2000/svg">
<path fill-rule="evenodd" clip-rule="evenodd" d="M9.62865 1.02128C8.05348 0.653677 6.40028 0.829742 4.93786 1.52084C3.47544 2.21194 2.28981 3.37743 1.57376 4.8278C0.85771 6.27816 0.653351 7.92811 0.993912 9.50934C1.33447 11.0906 2.19992 12.5101 3.44954 13.5371C4.69916 14.5641 6.25945 15.1382 7.87671 15.166C9.49397 15.1938 11.0731 14.6737 12.3573 13.6903C12.5765 13.5224 12.6181 13.2086 12.4502 12.9893C12.2823 12.7701 11.9685 12.7285 11.7493 12.8964C10.6443 13.7426 9.2855 14.1901 7.8939 14.1662C6.50231 14.1422 5.15973 13.6483 4.08448 12.7646C3.00923 11.8809 2.26454 10.6594 1.9715 9.29879C1.67845 7.9382 1.8543 6.51848 2.47043 5.27049C3.08657 4.0225 4.10676 3.01964 5.36512 2.42497C6.62349 1.8303 8.04601 1.6788 9.40139 1.99511C10.7568 2.31141 11.9653 3.07692 12.8304 4.16715C13.6956 5.25738 14.1665 6.60824 14.1666 8.00002V8.66666C14.1666 9.06448 14.0086 9.44602 13.7273 9.72732C13.4459 10.0086 13.0644 10.1667 12.6666 10.1667C12.2688 10.1667 11.8872 10.0086 11.6059 9.72732C11.3246 9.44602 11.1666 9.06448 11.1666 8.66666V5.33333C11.1666 5.05718 10.9427 4.83333 10.6666 4.83333C10.3905 4.83333 10.1666 5.05718 10.1666 5.33333V5.69059C9.60016 5.15895 8.83806 4.83333 7.99992 4.83333C6.25102 4.83333 4.83325 6.2511 4.83325 8C4.83325 9.7489 6.25102 11.1667 7.99992 11.1667C9.02194 11.1667 9.93088 10.6825 10.5099 9.93102C10.6167 10.1132 10.747 10.2826 10.8988 10.4344C11.3677 10.9033 12.0036 11.1667 12.6666 11.1667C13.3296 11.1667 13.9655 10.9033 14.4344 10.4344C14.9032 9.96559 15.1666 9.3297 15.1666 8.66666V7.99996C15.1665 6.38247 14.6192 4.81257 13.6138 3.54554C12.6083 2.27851 11.2038 1.38887 9.62865 1.02128ZM5.83325 8C5.83325 6.80338 6.8033 5.83333 7.99992 5.83333C9.19654 5.83333 10.1666 6.80338 10.1666 8C10.1666 9.19662 9.19654 10.1667 7.99992 10.1667C6.8033 10.1667 5.83325 9.19662 5.83325 8Z" fill="#A0AEC0"/>
</svg>
