<svg xmlns="http://www.w3.org/2000/svg" width="344.183" height="156" viewBox="0 0 344.183 156">
  <g id="Group_2" data-name="Group 2" transform="translate(-1032.817 -257)">
    <g id="Group_1" data-name="Group 1" transform="translate(73.242 19.947)" opacity="0.996">
      <g id="noun_Gift_13360" transform="translate(959.574 258)">
        <path id="Path_1" data-name="Path 1" d="M50.2,37.659l-.207,0c-.137,0-.342,0-.6-.026-.513-.047-1.284-.088-2.228-.241a33.1,33.1,0,0,1-3.376-.705c-.645-.168-1.318-.379-2.034-.6s-1.447-.515-2.221-.819q-1.144-.481-2.37-1.082c-.806-.419-1.633-.887-2.484-1.413a29.712,29.712,0,0,1-2.55-1.858,20.915,20.915,0,0,1-2.531-2.526A13.336,13.336,0,0,1,28.4,26.732a13.935,13.935,0,0,1-1.053-2.017,11.453,11.453,0,0,1-.9-5.326,11.882,11.882,0,0,1,.591-2.9,12.82,12.82,0,0,1,1.241-2.5l.368-.543.093-.134.129-.171.114-.153.114-.152c.037-.05.071-.1.145-.186l.388-.474a13.7,13.7,0,0,1,1.615-1.647,13.022,13.022,0,0,1,4.685-2.673A10.906,10.906,0,0,1,38.971,7.4a11.11,11.11,0,0,1,2.971.385,10.8,10.8,0,0,1,2.5,1.009,14.093,14.093,0,0,1,1.969,1.317,15.407,15.407,0,0,1,2.8,2.9c.379.492.71.984,1.028,1.471s.583.984.836,1.469a23.581,23.581,0,0,1,1.289,2.857,29.8,29.8,0,0,1,1.457,5.284,31.949,31.949,0,0,1,.492,4.486,29.683,29.683,0,0,1-.06,3.454c-.058.953-.2,1.709-.265,2.215-.035.253-.063.549-.088.681a1.524,1.524,0,0,0-.02.3l-.626.128s-.077-.344-.183-.806-.281-1.186-.513-2.038-.535-1.908-.92-3.075-.866-2.479-1.431-3.878a39.414,39.414,0,0,0-2.1-4.386,24.1,24.1,0,0,0-3.085-4.384,12.953,12.953,0,0,0-2.062-1.856,7.274,7.274,0,0,0-2.469-1.169,4.835,4.835,0,0,0-2.654.1A6.693,6.693,0,0,0,35.476,15.3a13.289,13.289,0,0,0-1,1.026c-.153.179-.307.356-.465.563l-.118.149-.05.065-.051.071-.2.286a5.643,5.643,0,0,0-.945,2.525,6.066,6.066,0,0,0,.366,2.659,10.512,10.512,0,0,0,1.287,2.421,22.352,22.352,0,0,0,3.638,3.915,43.181,43.181,0,0,0,3.854,2.962c2.5,1.7,4.668,3,6.219,3.85s2.458,1.29,2.458,1.29Z" transform="translate(-8.51 -7.399)" fill="#fff"/>
        <path id="Path_2" data-name="Path 2" d="M57.117,38.024l.2.055c.132.034.329.092.581.14.507.1,1.258.276,2.207.392a32.878,32.878,0,0,0,3.438.268c.666.02,1.371,0,2.121-.01s1.534-.091,2.361-.164c.821-.093,1.681-.22,2.579-.375.891-.176,1.816-.394,2.78-.662A29.14,29.14,0,0,0,76.351,36.6a20.73,20.73,0,0,0,3.137-1.717,13.51,13.51,0,0,0,1.608-1.25,13.974,13.974,0,0,0,1.575-1.642,11.414,11.414,0,0,0,2.357-4.86,11.853,11.853,0,0,0,.243-2.947,12.71,12.71,0,0,0-.491-2.751l-.2-.624-.052-.155-.076-.2-.067-.178-.068-.179c-.022-.057-.041-.111-.086-.22l-.24-.565A13.9,13.9,0,0,0,82.9,17.279a13.032,13.032,0,0,0-3.75-3.879,10.891,10.891,0,0,0-2.793-1.287,11.1,11.1,0,0,0-2.961-.462,10.758,10.758,0,0,0-2.678.268,13.964,13.964,0,0,0-2.258.713,15.38,15.38,0,0,0-3.5,2c-.5.366-.958.746-1.4,1.124s-.836.781-1.215,1.175a23.754,23.754,0,0,0-2.037,2.382,29.83,29.83,0,0,0-2.878,4.665,31.757,31.757,0,0,0-1.728,4.17,29.54,29.54,0,0,0-.909,3.332c-.211.93-.284,1.7-.365,2.2-.037.253-.092.545-.107.678a1.47,1.47,0,0,1-.065.291l.565.3s.17-.309.4-.723.6-1.059,1.063-1.812,1.048-1.682,1.744-2.694,1.526-2.139,2.459-3.322a39.2,39.2,0,0,1,3.241-3.623,24.049,24.049,0,0,1,4.189-3.345,12.8,12.8,0,0,1,2.5-1.2,7.258,7.258,0,0,1,2.7-.431,4.858,4.858,0,0,1,2.518.842,6.676,6.676,0,0,1,1.869,2.036,13.115,13.115,0,0,1,.677,1.266c.1.215.2.429.288.672l.072.176.029.076.027.082.114.332a5.633,5.633,0,0,1,.2,2.69,6.058,6.058,0,0,1-1.1,2.449A10.5,10.5,0,0,1,75.9,30.383a22.272,22.272,0,0,1-4.587,2.741,43.285,43.285,0,0,1-4.529,1.764c-2.874.932-5.322,1.575-7.05,1.955s-2.72.55-2.72.55Z" transform="translate(-1.771 -6.37)" fill="#fff"/>
        <path id="Path_3" data-name="Path 3" d="M45.679,38.222H58.491s.267-6.272-6.272-6.272S45.679,38.222,45.679,38.222Z" transform="translate(-3.848 -1.456)" fill="#fff"/>
        <rect id="Rectangle_1" data-name="Rectangle 1" width="32.293" height="23.599" transform="translate(62.103 39.251)" fill="#fff"/>
        <rect id="Rectangle_2" data-name="Rectangle 2" width="34.778" height="23.599" transform="translate(0 39.251)" fill="#fff"/>
        <rect id="Rectangle_3" data-name="Rectangle 3" width="22.357" height="68.313" transform="translate(37.262 38.009)" fill="#fff"/>
        <rect id="Rectangle_4" data-name="Rectangle 4" width="29.809" height="40.988" transform="translate(4.968 65.334)" fill="#fff"/>
        <rect id="Rectangle_5" data-name="Rectangle 5" width="26.083" height="40.988" transform="translate(62.103 65.334)" fill="#fff"/>
      </g>
    </g>
    <text id="njot" transform="translate(1137 385)" fill="#fff" font-size="130" font-family="Lato-Black, Lato" font-weight="800"><tspan x="0" y="0">njot</tspan></text>
  </g>
</svg>
