<svg width="16" height="16" viewBox="0 0 16 16" fill="none" xmlns="http://www.w3.org/2000/svg">
<path d="M14.6664 12.8358C14.6685 13.3494 14.4536 13.8402 14.0744 14.1874C13.6953 14.5347 13.187 14.7062 12.6636 14.6589C10.6944 14.4453 8.80294 13.7736 7.1458 12.7008C5.59853 11.7194 4.28672 10.4099 3.30641 8.86979C2.22493 7.20329 1.5519 5.30593 1.34092 3.32192C1.29475 2.81193 1.46543 2.30606 1.81127 1.92787C2.15707 1.54971 2.64616 1.33403 3.15978 1.3334H4.98127C5.89849 1.32457 6.68026 1.99573 6.80939 2.90797C6.88052 3.44629 7.01242 3.97485 7.20207 4.4822C7.4531 5.14884 7.29254 5.90036 6.7885 6.40917L6.35168 6.84521C7.06795 7.96689 8.02143 8.9187 9.14508 9.63371L9.5843 9.19526C10.0916 8.6945 10.8444 8.53422 11.5109 8.7843C12.0205 8.97413 12.55 9.1058 13.0947 9.17754C14.0107 9.30655 14.6852 10.0984 14.6664 11.0208L14.6664 12.8358ZM13.4482 11.014L13.4484 10.999C13.456 10.6903 13.2308 10.4249 12.9299 10.3825C12.2996 10.2995 11.6806 10.1456 11.0836 9.92319C10.861 9.83966 10.61 9.89308 10.4433 10.0576L9.66973 10.8299C9.47583 11.0234 9.17628 11.0638 8.93791 10.9285C7.31758 10.0088 5.97598 8.6695 5.05464 7.05202C4.91909 6.81406 4.95953 6.51503 5.15343 6.32148L5.92464 5.55164C6.09185 5.38284 6.14537 5.13233 6.06118 4.90875C5.83889 4.31409 5.68471 3.69624 5.60234 3.07258C5.55954 2.77035 5.29892 2.5466 4.9872 2.54957H3.16046C2.98941 2.54979 2.82632 2.62171 2.71104 2.74778C2.59576 2.87384 2.53887 3.04247 2.55332 3.20298C2.74317 4.98755 3.35145 6.70239 4.33177 8.21306C5.21905 9.60693 6.40288 10.7887 7.80393 11.6774C9.30593 12.6498 11.0155 13.2568 12.7842 13.4488C12.955 13.4642 13.1244 13.407 13.2508 13.2913C13.3772 13.1755 13.4489 13.0119 13.4482 12.8383V11.014Z" fill="#A0AEC0"/>
</svg>
